<mxfile host="app.diagrams.net" modified="2024-05-16T13:20:05.472Z" agent="Mozilla/5.0 (Windows NT 10.0; Win64; x64) AppleWebKit/537.36 (KHTML, like Gecko) Chrome/123.0.0.0 Safari/537.36 OPR/109.0.0.0" etag="neLnXF_Atsu29arKZf6l" version="24.4.2" type="device">
  <diagram name="PÃ¡gina-1" id="qZPZG2GRxhvWbCDJIYZL">
    <mxGraphModel dx="457" dy="1128" grid="0" gridSize="10" guides="1" tooltips="1" connect="1" arrows="1" fold="1" page="0" pageScale="1" pageWidth="827" pageHeight="1169" math="0" shadow="0">
      <root>
        <mxCell id="0" />
        <mxCell id="1" parent="0" />
        <mxCell id="xMCQM_dsSWIcxbCVf5gB-1" value="Medico" style="swimlane;childLayout=stackLayout;horizontal=1;startSize=50;horizontalStack=0;rounded=1;fontSize=14;fontStyle=0;strokeWidth=2;resizeParent=0;resizeLast=1;shadow=0;dashed=0;align=center;arcSize=4;whiteSpace=wrap;html=1;" vertex="1" parent="1">
          <mxGeometry x="13" y="-388" width="160" height="183" as="geometry" />
        </mxCell>
        <mxCell id="xMCQM_dsSWIcxbCVf5gB-2" value="#rut (pk)&lt;div&gt;&lt;br&gt;&lt;div&gt;&lt;div&gt;nombre&lt;/div&gt;&lt;div&gt;&lt;br&gt;&lt;/div&gt;&lt;div&gt;direccion&lt;/div&gt;&lt;/div&gt;&lt;/div&gt;" style="align=left;strokeColor=none;fillColor=none;spacingLeft=4;fontSize=12;verticalAlign=top;resizable=0;rotatable=0;part=1;html=1;" vertex="1" parent="xMCQM_dsSWIcxbCVf5gB-1">
          <mxGeometry y="50" width="160" height="133" as="geometry" />
        </mxCell>
        <mxCell id="xMCQM_dsSWIcxbCVf5gB-3" value="Especialidad" style="swimlane;childLayout=stackLayout;horizontal=1;startSize=50;horizontalStack=0;rounded=1;fontSize=14;fontStyle=0;strokeWidth=2;resizeParent=0;resizeLast=1;shadow=0;dashed=0;align=center;arcSize=4;whiteSpace=wrap;html=1;" vertex="1" parent="1">
          <mxGeometry x="339" y="-387.5" width="155" height="182" as="geometry" />
        </mxCell>
        <mxCell id="xMCQM_dsSWIcxbCVf5gB-4" value="#codigo (pk)&lt;br&gt;&lt;div&gt;&lt;br&gt;&lt;/div&gt;&lt;div&gt;descripcion&lt;/div&gt;" style="align=left;strokeColor=none;fillColor=none;spacingLeft=4;fontSize=12;verticalAlign=top;resizable=0;rotatable=0;part=1;html=1;" vertex="1" parent="xMCQM_dsSWIcxbCVf5gB-3">
          <mxGeometry y="50" width="155" height="132" as="geometry" />
        </mxCell>
        <mxCell id="xMCQM_dsSWIcxbCVf5gB-13" value="Usuario" style="swimlane;childLayout=stackLayout;horizontal=1;startSize=50;horizontalStack=0;rounded=1;fontSize=14;fontStyle=0;strokeWidth=2;resizeParent=0;resizeLast=1;shadow=0;dashed=0;align=center;arcSize=4;whiteSpace=wrap;html=1;" vertex="1" parent="1">
          <mxGeometry x="287" y="-82" width="160" height="120" as="geometry" />
        </mxCell>
        <mxCell id="xMCQM_dsSWIcxbCVf5gB-16" value="Consulta" style="swimlane;childLayout=stackLayout;horizontal=1;startSize=50;horizontalStack=0;rounded=1;fontSize=14;fontStyle=0;strokeWidth=2;resizeParent=0;resizeLast=1;shadow=0;dashed=0;align=center;arcSize=4;whiteSpace=wrap;html=1;" vertex="1" parent="1">
          <mxGeometry x="11" y="-80" width="160" height="120" as="geometry" />
        </mxCell>
        <mxCell id="xMCQM_dsSWIcxbCVf5gB-17" value="+Attribute1&#xa;+Attribute2&#xa;+Attribute3" style="align=left;strokeColor=none;fillColor=none;spacingLeft=4;fontSize=12;verticalAlign=top;resizable=0;rotatable=0;part=1;html=1;" vertex="1" parent="xMCQM_dsSWIcxbCVf5gB-16">
          <mxGeometry y="50" width="160" height="70" as="geometry" />
        </mxCell>
        <mxCell id="xMCQM_dsSWIcxbCVf5gB-18" value="" style="edgeStyle=entityRelationEdgeStyle;fontSize=12;html=1;endArrow=ERoneToMany;rounded=0;startSize=8;endSize=8;curved=1;" edge="1" parent="1" source="xMCQM_dsSWIcxbCVf5gB-4" target="xMCQM_dsSWIcxbCVf5gB-2">
          <mxGeometry width="100" height="100" relative="1" as="geometry">
            <mxPoint x="186" y="-75" as="sourcePoint" />
            <mxPoint x="286" y="-175" as="targetPoint" />
          </mxGeometry>
        </mxCell>
        <mxCell id="xMCQM_dsSWIcxbCVf5gB-20" value="" style="fontSize=12;html=1;endArrow=ERoneToMany;rounded=0;startSize=8;endSize=8;exitX=0.431;exitY=1.01;exitDx=0;exitDy=0;exitPerimeter=0;" edge="1" parent="1" source="xMCQM_dsSWIcxbCVf5gB-2" target="xMCQM_dsSWIcxbCVf5gB-16">
          <mxGeometry width="100" height="100" relative="1" as="geometry">
            <mxPoint x="66" y="-175" as="sourcePoint" />
            <mxPoint x="82" y="-84" as="targetPoint" />
          </mxGeometry>
        </mxCell>
        <mxCell id="xMCQM_dsSWIcxbCVf5gB-21" value="" style="edgeStyle=entityRelationEdgeStyle;fontSize=12;html=1;endArrow=ERoneToMany;rounded=0;startSize=8;endSize=8;curved=1;entryX=0;entryY=0.75;entryDx=0;entryDy=0;" edge="1" parent="1" source="xMCQM_dsSWIcxbCVf5gB-17" target="xMCQM_dsSWIcxbCVf5gB-13">
          <mxGeometry width="100" height="100" relative="1" as="geometry">
            <mxPoint x="186" y="-75" as="sourcePoint" />
            <mxPoint x="286" y="-175" as="targetPoint" />
          </mxGeometry>
        </mxCell>
      </root>
    </mxGraphModel>
  </diagram>
</mxfile>
